<?xml version="1.0" encoding="utf-8"?>
<!-- Generator: Adobe Illustrator 22.0.1, SVG Export Plug-In . SVG Version: 6.00 Build 0)  -->
<svg version="1.1" id="Calque_1" xmlns="http://www.w3.org/2000/svg" xmlns:xlink="http://www.w3.org/1999/xlink" x="0px" y="0px"
	 viewBox="0 0 971 953.5" style="enable-background:new 0 0 971 953.5;" xml:space="preserve">
<style type="text/css">
	.st0{fill:url(#SVGID_1_);}
	.st1{fill:url(#SVGID_2_);}
	.st2{fill:url(#SVGID_3_);}
	.st3{fill:url(#SVGID_4_);}
	.st4{fill:url(#SVGID_5_);}
	.st5{fill:url(#SVGID_6_);}
	.st6{fill:url(#SVGID_7_);}
	.st7{fill:url(#SVGID_8_);}
	.st8{fill:url(#SVGID_9_);}
	.st9{fill:url(#SVGID_10_);}
	.st10{fill:url(#SVGID_11_);}
	.st11{fill:url(#SVGID_12_);}
	.st12{fill:url(#SVGID_13_);}
	.st13{fill:url(#SVGID_14_);}
	.st14{fill:url(#SVGID_15_);}
	.st15{fill:url(#SVGID_16_);}
	.st16{fill:url(#SVGID_17_);}
	.st17{fill:url(#SVGID_18_);}
	.st18{fill:url(#SVGID_19_);}
	.st19{fill:url(#SVGID_20_);}
	.st20{fill:url(#SVGID_21_);}
	.st21{fill:url(#SVGID_22_);}
	.st22{fill:url(#SVGID_23_);}
	.st23{fill:url(#SVGID_24_);}
	.st24{fill:url(#SVGID_25_);}
	.st25{fill:url(#SVGID_26_);}
	.st26{fill:url(#SVGID_27_);}
	.st27{fill:url(#SVGID_28_);}
	.st28{fill:url(#SVGID_29_);}
	.st29{fill:url(#SVGID_30_);}
	.st30{fill:url(#SVGID_31_);}
	.st31{fill:url(#SVGID_32_);}
	.st32{fill:url(#SVGID_33_);}
	.st33{fill:url(#SVGID_34_);}
	.st34{fill:url(#SVGID_35_);}
</style>
<g>
	<linearGradient id="SVGID_1_" gradientUnits="userSpaceOnUse" x1="482.1807" y1="948.6141" x2="482.1807" y2="5.6602">
		<stop  offset="0" style="stop-color:#2500C2"/>
		<stop  offset="0.9944" style="stop-color:#F60074"/>
	</linearGradient>
	<path class="st0" d="M472.2,598.8h20.1c-0.4-6.7-0.8-13.4-1.4-20h-13.6C475.5,585.4,473.7,592.1,472.2,598.8z"/>
</g>
<g>
	<linearGradient id="SVGID_2_" gradientUnits="userSpaceOnUse" x1="479.7626" y1="948.6141" x2="479.7626" y2="5.6602">
		<stop  offset="0" style="stop-color:#2500C2"/>
		<stop  offset="0.9944" style="stop-color:#F60074"/>
	</linearGradient>
	<path class="st1" d="M466.1,635.8h27.3c-0.1-6.7-0.3-13.3-0.5-20h-24C467.8,622.4,466.9,629.1,466.1,635.8z"/>
</g>
<g>
	<linearGradient id="SVGID_3_" gradientUnits="userSpaceOnUse" x1="219.8251" y1="948.6141" x2="219.8251" y2="5.6602">
		<stop  offset="0" style="stop-color:#2500C2"/>
		<stop  offset="0.9944" style="stop-color:#F60074"/>
	</linearGradient>
	<path class="st2" d="M395.8,615.8H43.9c2.2,6.7,4.5,13.4,7,20h344.4C395.4,629.1,395.6,622.5,395.8,615.8z"/>
</g>
<g>
	<linearGradient id="SVGID_4_" gradientUnits="userSpaceOnUse" x1="474.6136" y1="948.6141" x2="474.6136" y2="5.6602">
		<stop  offset="0" style="stop-color:#2500C2"/>
		<stop  offset="0.9944" style="stop-color:#F60074"/>
	</linearGradient>
	<path class="st3" d="M456.2,690.3c2.2,5.4,4.3,11,5.2,16.8c0.1,0.9,0.3,1.8,0.4,2.7h28.3c1.2-6.7,2.4-13.3,3.1-20H456
		C456,690,456.1,690.1,456.2,690.3z"/>
</g>
<g>
	<linearGradient id="SVGID_5_" gradientUnits="userSpaceOnUse" x1="477.6707" y1="948.6141" x2="477.6707" y2="5.6602">
		<stop  offset="0" style="stop-color:#2500C2"/>
		<stop  offset="0.9944" style="stop-color:#F60074"/>
	</linearGradient>
	<path class="st4" d="M464.1,652.8c-0.7,6.2-1.4,12.4-2.3,18.6c-0.1,0.5-0.2,0.9-0.3,1.4h32.2c-0.1-6.7-0.1-13.3-0.2-20H464.1z"/>
</g>
<g>
	<linearGradient id="SVGID_6_" gradientUnits="userSpaceOnUse" x1="215.2824" y1="948.6141" x2="215.2824" y2="5.6602">
		<stop  offset="0" style="stop-color:#2500C2"/>
		<stop  offset="0.9944" style="stop-color:#F60074"/>
	</linearGradient>
	<path class="st5" d="M396.9,578.8H33.6c1.6,6.7,3.3,13.4,5.1,20h357.5C396.5,592.1,396.7,585.5,396.9,578.8z"/>
</g>
<g>
	<linearGradient id="SVGID_7_" gradientUnits="userSpaceOnUse" x1="475.8223" y1="948.6141" x2="475.8223" y2="5.6602">
		<stop  offset="0" style="stop-color:#2500C2"/>
		<stop  offset="0.9944" style="stop-color:#F60074"/>
	</linearGradient>
	<path class="st6" d="M465.4,740.2c0.1,1.8,0.3,3.7,0.4,5.5c0,0.3,0.1,0.7,0.1,1h19.9c0.6-6.7,1.2-13.3,1.8-20H464
		C464.4,731.3,464.9,735.8,465.4,740.2z"/>
</g>
<g>
	<linearGradient id="SVGID_8_" gradientUnits="userSpaceOnUse" x1="485.3791" y1="948.6141" x2="485.3791" y2="5.6602">
		<stop  offset="0" style="stop-color:#2500C2"/>
		<stop  offset="0.9944" style="stop-color:#F60074"/>
	</linearGradient>
	<path class="st7" d="M485.8,541.8c-1.1,5.5-2.3,12.3-3.8,19c-0.1,0.3-0.2,0.6-0.2,1h7.3c-0.8-6.7-1.8-13.4-2.9-20H485.8z"/>
</g>
<g>
	<linearGradient id="SVGID_9_" gradientUnits="userSpaceOnUse" x1="211.6616" y1="948.6141" x2="211.6616" y2="5.6602">
		<stop  offset="0" style="stop-color:#2500C2"/>
		<stop  offset="0.9944" style="stop-color:#F60074"/>
	</linearGradient>
	<path class="st8" d="M400.7,515.2c0.1-3.4-1.6-7.1-3.6-10.4H22.6c0.4,6.7,1,13.4,1.8,20h375.7C400.4,521.6,400.6,518.4,400.7,515.2
		z"/>
</g>
<g>
	<linearGradient id="SVGID_10_" gradientUnits="userSpaceOnUse" x1="676.3585" y1="948.6141" x2="676.3585" y2="5.6602">
		<stop  offset="0" style="stop-color:#2500C2"/>
		<stop  offset="0.9944" style="stop-color:#F60074"/>
	</linearGradient>
	<path class="st9" d="M540.5,808.8c-0.5,4-1.2,8-2,12h254.6c7.3-6.4,14.4-13.1,21.2-20H541.4C541.1,803.5,540.8,806.2,540.5,808.8z"
		/>
</g>
<g>
	<linearGradient id="SVGID_11_" gradientUnits="userSpaceOnUse" x1="400.4746" y1="948.6141" x2="400.4746" y2="5.6602">
		<stop  offset="0" style="stop-color:#2500C2"/>
		<stop  offset="0.9944" style="stop-color:#F60074"/>
	</linearGradient>
	<path class="st10" d="M384.4,368.7c3.2,4.3,6.2,8,8.8,12c1.1,1.7,2.1,3.7,1.9,5.7c-0.3,8.4-0.3,17-1.9,25.1
		c-1.8,9-2.5,16.6,4.3,24.3c4.7,5.4,7,12.8,10.6,19.2c0.6,1,2.1,2.3,2.8,2.2c1.2-0.3,2.9-1.7,3-2.8c1-9,2.3-18.1,2.6-27.3
		c0-9.4-1.2-18.9-2.1-28.4c-2.2-23.3-4.3-46.8-6.8-70.2c-0.4-3.7-2.2-7.3-3.3-10.9c-0.8,15.3-0.8,15.3-8.4,29.1
		c-0.3,0.4-0.6,0.8-0.6,1.2C396.1,357.1,390.5,363.2,384.4,368.7z"/>
</g>
<g>
	<linearGradient id="SVGID_12_" gradientUnits="userSpaceOnUse" x1="296.0328" y1="948.6141" x2="296.0328" y2="5.6602">
		<stop  offset="0" style="stop-color:#2500C2"/>
		<stop  offset="0.9944" style="stop-color:#F60074"/>
	</linearGradient>
	<path class="st11" d="M427.3,800.8H156.9c6.9,6.9,13.9,13.6,21.2,20h257.1C432.8,814.1,430,807.4,427.3,800.8z"/>
</g>
<g>
	<linearGradient id="SVGID_13_" gradientUnits="userSpaceOnUse" x1="485.5761" y1="948.6141" x2="485.5761" y2="5.6602">
		<stop  offset="0" style="stop-color:#2500C2"/>
		<stop  offset="0.9944" style="stop-color:#F60074"/>
	</linearGradient>
	<path class="st12" d="M485.6,9.3c-256.3,0-464,207.7-464,464c0,4.9,0.1,9.7,0.2,14.5h362.4c-0.3-0.4-0.6-0.7-0.9-1.1
		c-2.3-2.8-5.1-5.1-7.6-7.7c-1.7-1.8-3.9-3.5-4.4-5.7c-3.4-14.1-9.9-26.6-17.4-38.8c-8.1-13.2-9.9-28.2-9-43.2
		c0.4-5.1,2.5-9.8-0.6-14.6c-0.4-0.7-0.1-2.2,0.1-3.3c5.5-23.7,11-47.6,16.6-71.3c3-13.2,5.2-26.6,9.4-39.5
		c4.1-12.7,9.7-24.8,15.2-36.8c3.9-8.4,12.1-11.5,20.4-13.8c13.7-3.9,27.2-8.3,40.8-11.9c8.3-2.2,11.6-7.7,13.4-15.5
		c0.7-2.9,3.2-5.5,5-8.3c0.6-0.8,1.8-1.2,1.8-1.9c0.3-10.6,2.5-22.1-4.8-31c-7.2-8.8-9.2-17.8-5.5-28.6c0.1-0.3,0.1-0.7,0.3-1
		c-0.3-0.7-0.3-1.2-0.4-2.3c-0.3-2.1-0.3-3.7-0.1-5c0.3-3.6,0.6-7.2,0.7-10.8c0.1-3.5,0.8-6.9,1.8-10.2c1-3.2,2.2-6.2,4-9
		c0.8-1.4,1.7-2.9,2.6-4.1c1.2-1.7,2.8-3.2,4.3-4.7c1.5-1.5,3.2-2.9,4.8-4.1c0.6-0.4,1.1-0.8,1.7-1.1c2.2-1.2,4.6-2.3,6.9-3.3
		c0.8-0.4,1.8-0.7,2.6-0.8c2.8-0.7,5.5-1.4,8.4-1.5c1.2,0,2.3-0.1,3.6-0.4c0.6-0.1,1.5-0.4,2.1-0.7c1.4-0.7,2.8-1.2,4.3-0.6
		c1.1,0.4,2.2,0.7,3.4,0.6c3.2-0.1,6.2,0.7,9.2,1.4c0.8,0.1,1.5,0.4,2.3,0.7c3,1,6.3,1.9,9.4,3.3c2.2,1,4.1,2.3,5.9,3.9
		c1.9,1.8,3.6,3.7,4.8,5.9c0.8,1.5,1.4,3,1.9,4.6c1,3,1.5,6.2,1.7,9.4c0.1,2.3,0.1,4.8,0.3,7.3c1.2,3.2,1.4,6.5,0.8,9.8
		c0.3,1.2,0.4,2.6,0.6,3.9c0.1,1,0.6,1.5,1.7,1.9c1.5,0.6,3,1.1,4.4,1.9c2.2,1.2,4.7,2.2,7,3.5c2.6,1.4,5.4,2.8,7.9,4.3
		c1.7,1,3.3,2.1,4.1,4.1c0.1,0.3,0.3,0.7,0.1,1.1c0,0.1-0.1,1.1-0.7,1.8s-1.2,0.8-2.2,1.1c-3.9,1.1-3.7,1.1-3.9,1.1
		c-1.9,0.4-3.3,0.7-4.4,0.8c-4.3,0.7-0.8,0.1-5.4,0.8c-7.2,1.1-6.5,0.8-7.6,1.1c-4.7,0.8-7.5,1.4-9.1,2.2c-2.6,11-5.1,22.1-7.9,33
		c-0.7,2.8-2.1,5.7-3.9,8c-2.8,3.5-2.3,6.6-1.9,10.8c1.1,11.6,7.9,17,17.9,20.7c13,4.8,25.4,10.8,38.1,16.1
		c14.2,6.1,18.4,19.9,23.9,32.3c1.9,4.3,2.8,9.2,3.7,13.9c5.1,23.9,10.2,47.6,15,71.5c1.8,9,3.3,17.9,4,27c0.4,6.6-0.6,13.4-1,20
		c-0.3,4.4,2.9,9.4-1.9,13.4c-0.4,0.4,0,2.5,0.7,3.2c9.2,10.6,4.6,22.1-2.2,30.5c-9.1,11.6-13.4,24.3-16.1,38.1
		c-0.6,2.5-2.2,5.1-3.9,7c-3.2,3.7-6.8,7.1-10.2,10.6h358.3c0.1-4.8,0.2-9.6,0.2-14.5C949.6,217,741.8,9.3,485.6,9.3z"/>
</g>
<g>
	<linearGradient id="SVGID_14_" gradientUnits="userSpaceOnUse" x1="572.2294" y1="948.6141" x2="572.2294" y2="5.6602">
		<stop  offset="0" style="stop-color:#2500C2"/>
		<stop  offset="0.9944" style="stop-color:#F60074"/>
	</linearGradient>
	<path class="st13" d="M580.8,371.4c0.4-3.7,2.1-8.6,0.4-11.2c-5.9-9.1-11.3-18.1-11.6-29.7c-9.5,41.5-12.1,83.1-0.7,126.3
		c5.1-9.9,11.7-18.1,13.5-27.2c1.9-9.9-0.7-20.8-1.4-31c0-0.8-0.8-1.7-1-2.5c-0.6-2.9-1.5-5.8-1.4-8.7
		C579,382,580.2,376.7,580.8,371.4z"/>
</g>
<g>
	<linearGradient id="SVGID_15_" gradientUnits="userSpaceOnUse" x1="476.1309" y1="948.6141" x2="476.1309" y2="5.6602">
		<stop  offset="0" style="stop-color:#2500C2"/>
		<stop  offset="0.9944" style="stop-color:#F60074"/>
	</linearGradient>
	<path class="st14" d="M484.4,763.8h-16.6c0.8,6.7,1.4,13.3,1.7,20h13.3C483.4,777.2,483.9,770.5,484.4,763.8z"/>
</g>
<g>
	<linearGradient id="SVGID_16_" gradientUnits="userSpaceOnUse" x1="476.5621" y1="948.6141" x2="476.5621" y2="5.6602">
		<stop  offset="0" style="stop-color:#2500C2"/>
		<stop  offset="0.9944" style="stop-color:#F60074"/>
	</linearGradient>
	<path class="st15" d="M479.4,820.8h0.5c0.5-6.6,1.1-13.3,1.6-20h-9.8c1.2,3.4,2.9,6.6,5.5,9.8C479.3,813.2,479.3,817.4,479.4,820.8
		z"/>
</g>
<g>
	<linearGradient id="SVGID_17_" gradientUnits="userSpaceOnUse" x1="227.5266" y1="948.6141" x2="227.5266" y2="5.6602">
		<stop  offset="0" style="stop-color:#2500C2"/>
		<stop  offset="0.9944" style="stop-color:#F60074"/>
	</linearGradient>
	<path class="st16" d="M394.5,663.9c0.1-3.7,0.2-7.4,0.3-11.1H57.6c2.8,6.7,5.8,13.4,9,20h330.9
		C396.1,669.8,394.4,666.9,394.5,663.9z"/>
</g>
<g>
	<linearGradient id="SVGID_18_" gradientUnits="userSpaceOnUse" x1="212.5305" y1="948.6141" x2="212.5305" y2="5.6602">
		<stop  offset="0" style="stop-color:#2500C2"/>
		<stop  offset="0.9944" style="stop-color:#F60074"/>
	</linearGradient>
	<path class="st17" d="M398.1,548.2c0.1-2.1,0.2-4.2,0.4-6.4H26.6c1,6.7,2.1,13.4,3.4,20h367.5C397.7,557.2,397.9,552.7,398.1,548.2
		z"/>
</g>
<g>
	<linearGradient id="SVGID_19_" gradientUnits="userSpaceOnUse" x1="734.3364" y1="948.6141" x2="734.3364" y2="5.6602">
		<stop  offset="0" style="stop-color:#2500C2"/>
		<stop  offset="0.9944" style="stop-color:#F60074"/>
	</linearGradient>
	<path class="st18" d="M555.1,672.8h349.5c3.1-6.6,6.1-13.3,9-20H557.3C556.6,659.5,555.9,666.1,555.1,672.8z"/>
</g>
<g>
	<linearGradient id="SVGID_20_" gradientUnits="userSpaceOnUse" x1="723.4406" y1="948.6141" x2="723.4406" y2="5.6602">
		<stop  offset="0" style="stop-color:#2500C2"/>
		<stop  offset="0.9944" style="stop-color:#F60074"/>
	</linearGradient>
	<path class="st19" d="M550.8,709.8h334.1c3.9-6.6,7.6-13.2,11.2-20H553.1C552.4,696.5,551.6,703.1,550.8,709.8z"/>
</g>
<g>
	<linearGradient id="SVGID_21_" gradientUnits="userSpaceOnUse" x1="743.1968" y1="948.6141" x2="743.1968" y2="5.6602">
		<stop  offset="0" style="stop-color:#2500C2"/>
		<stop  offset="0.9944" style="stop-color:#F60074"/>
	</linearGradient>
	<path class="st20" d="M559.1,635.8h361.2c2.5-6.6,4.8-13.3,7-20H561C560.4,622.5,559.8,629.1,559.1,635.8z"/>
</g>
<g>
	<linearGradient id="SVGID_22_" gradientUnits="userSpaceOnUse" x1="710.4521" y1="948.6141" x2="710.4521" y2="5.6602">
		<stop  offset="0" style="stop-color:#2500C2"/>
		<stop  offset="0.9944" style="stop-color:#F60074"/>
	</linearGradient>
	<path class="st21" d="M546.8,745.1c-0.1,0.6-0.1,1.1-0.2,1.7h313.8c4.8-6.5,9.4-13.2,13.8-20H548.9
		C548.2,732.9,547.5,739,546.8,745.1z"/>
</g>
<g>
	<linearGradient id="SVGID_23_" gradientUnits="userSpaceOnUse" x1="750.1028" y1="948.6141" x2="750.1028" y2="5.6602">
		<stop  offset="0" style="stop-color:#2500C2"/>
		<stop  offset="0.9944" style="stop-color:#F60074"/>
	</linearGradient>
	<path class="st22" d="M562.7,598.8h369.7c1.9-6.6,3.6-13.3,5.1-20H564.7C564,585.5,563.3,592.1,562.7,598.8z"/>
</g>
<g>
	<linearGradient id="SVGID_24_" gradientUnits="userSpaceOnUse" x1="238.6393" y1="948.6141" x2="238.6393" y2="5.6602">
		<stop  offset="0" style="stop-color:#2500C2"/>
		<stop  offset="0.9944" style="stop-color:#F60074"/>
	</linearGradient>
	<path class="st23" d="M401.6,689.8H75.1c3.6,6.8,7.3,13.4,11.2,20h315.9C401.6,703.2,401.4,696.6,401.6,689.8z"/>
</g>
<g>
	<linearGradient id="SVGID_25_" gradientUnits="userSpaceOnUse" x1="695.2329" y1="948.6141" x2="695.2329" y2="5.6602">
		<stop  offset="0" style="stop-color:#2500C2"/>
		<stop  offset="0.9944" style="stop-color:#F60074"/>
	</linearGradient>
	<path class="st24" d="M543.1,783.8h287.3c5.9-6.5,11.5-13.2,17-20H544.9C544.3,770.5,543.7,777.1,543.1,783.8z"/>
</g>
<g>
	<linearGradient id="SVGID_26_" gradientUnits="userSpaceOnUse" x1="755.6328" y1="948.6141" x2="755.6328" y2="5.6602">
		<stop  offset="0" style="stop-color:#2500C2"/>
		<stop  offset="0.9944" style="stop-color:#F60074"/>
	</linearGradient>
	<path class="st25" d="M566.8,560.8c0,0.3-0.1,0.6-0.1,0.9h374.4c1.3-6.6,2.4-13.3,3.4-20H569.9
		C568.7,548.1,567.7,554.5,566.8,560.8z"/>
</g>
<g>
	<linearGradient id="SVGID_27_" gradientUnits="userSpaceOnUse" x1="760.8465" y1="948.6141" x2="760.8465" y2="5.6602">
		<stop  offset="0" style="stop-color:#2500C2"/>
		<stop  offset="0.9944" style="stop-color:#F60074"/>
	</linearGradient>
	<path class="st26" d="M573.2,524.8h373.6c0.7-6.6,1.3-13.3,1.8-20H577.2C575.9,511.5,574.5,518.1,573.2,524.8z"/>
</g>
<g>
	<linearGradient id="SVGID_28_" gradientUnits="userSpaceOnUse" x1="321.5394" y1="948.6141" x2="321.5394" y2="5.6602">
		<stop  offset="0" style="stop-color:#2500C2"/>
		<stop  offset="0.9944" style="stop-color:#F60074"/>
	</linearGradient>
	<path class="st27" d="M441.5,844.6c-0.4-2.3-0.8-4.5-1.3-6.8H198.4c8.9,7,18,13.7,27.3,20h218.9C443.5,853.4,442.2,849,441.5,844.6
		z"/>
</g>
<g>
	<linearGradient id="SVGID_29_" gradientUnits="userSpaceOnUse" x1="272.1867" y1="948.6141" x2="272.1867" y2="5.6602">
		<stop  offset="0" style="stop-color:#2500C2"/>
		<stop  offset="0.9944" style="stop-color:#F60074"/>
	</linearGradient>
	<path class="st28" d="M419.9,781.6c-2-5.9-4-11.9-5.9-17.9H123.7c5.5,6.8,11.2,13.5,17,20h279.8
		C420.4,783.1,420.1,782.4,419.9,781.6z"/>
</g>
<g>
	<linearGradient id="SVGID_30_" gradientUnits="userSpaceOnUse" x1="252.972" y1="948.6141" x2="252.972" y2="5.6602">
		<stop  offset="0" style="stop-color:#2500C2"/>
		<stop  offset="0.9944" style="stop-color:#F60074"/>
	</linearGradient>
	<path class="st29" d="M404.5,726.8H96.9c4.4,6.8,9,13.5,13.8,20h298.3C407.3,740.2,405.8,733.5,404.5,726.8z"/>
</g>
<g>
	<linearGradient id="SVGID_31_" gradientUnits="userSpaceOnUse" x1="349.9239" y1="948.6141" x2="349.9239" y2="5.6602">
		<stop  offset="0" style="stop-color:#2500C2"/>
		<stop  offset="0.9944" style="stop-color:#F60074"/>
	</linearGradient>
	<path class="st30" d="M447,874.8H252.9c12.5,7.2,25.3,13.9,38.5,20H445C445.6,888.2,446.4,881.5,447,874.8z"/>
</g>
<g>
	<linearGradient id="SVGID_32_" gradientUnits="userSpaceOnUse" x1="409.3813" y1="948.6141" x2="409.3813" y2="5.6602">
		<stop  offset="0" style="stop-color:#2500C2"/>
		<stop  offset="0.9944" style="stop-color:#F60074"/>
	</linearGradient>
	<path class="st31" d="M481.3,928.8c0.3-2.5-1.1-5.2-1.9-8.8c-5.1,0-10.5,0-15.9,0c-9.7,0-15.4-2.4-17.8-8.1H333.5
		c47.5,16.5,98.6,25.5,151.7,25.5C482.3,936.4,480.4,934.3,481.3,928.8z"/>
</g>
<g>
	<linearGradient id="SVGID_33_" gradientUnits="userSpaceOnUse" x1="616.5507" y1="948.6141" x2="616.5507" y2="5.6602">
		<stop  offset="0" style="stop-color:#2500C2"/>
		<stop  offset="0.9944" style="stop-color:#F60074"/>
	</linearGradient>
	<path class="st32" d="M521.3,887.5c-2.3-0.1-4.3-0.3-6.5-0.4c0.1,2.7,0.4,5.3,1,7.7h164c13.2-6.1,26-12.8,38.5-20H524.7
		C523.6,879,522.4,883.2,521.3,887.5z"/>
</g>
<g>
	<linearGradient id="SVGID_34_" gradientUnits="userSpaceOnUse" x1="580.3027" y1="948.6141" x2="580.3027" y2="5.6602">
		<stop  offset="0" style="stop-color:#2500C2"/>
		<stop  offset="0.9944" style="stop-color:#F60074"/>
	</linearGradient>
	<path class="st33" d="M526.3,917.7c1.4,2.3,3,4.7,4,7.2c1.6,4.5,0.7,8.3-2.1,10.5c38-3.5,74.7-11.5,109.5-23.6H523
		C524.1,913.8,525.2,915.7,526.3,917.7z"/>
</g>
<g>
	<linearGradient id="SVGID_35_" gradientUnits="userSpaceOnUse" x1="650.9675" y1="948.6141" x2="650.9675" y2="5.6602">
		<stop  offset="0" style="stop-color:#2500C2"/>
		<stop  offset="0.9944" style="stop-color:#F60074"/>
	</linearGradient>
	<path class="st34" d="M529.2,857.8h216.2c9.4-6.3,18.5-13,27.3-20H534.4C532.7,844.5,531,851.1,529.2,857.8z"/>
</g>
</svg>
